<svg xmlns="http://www.w3.org/2000/svg" xmlns:xlink="http://www.w3.org/1999/xlink" width="500" zoomAndPan="magnify" viewBox="0 0 375 374.999991" height="500" preserveAspectRatio="xMidYMid meet" version="1.0"><defs><clipPath id="0626c3776a"><path d="M 100.898438 98.742188 L 250.898438 98.742188 L 250.898438 248.742188 L 100.898438 248.742188 Z M 100.898438 98.742188 " clip-rule="nonzero"/></clipPath></defs><g clip-path="url(#0626c3776a)"><path fill="#88c9f9" d="M 250.898438 173.742188 C 250.898438 174.96875 250.871094 176.195312 250.808594 177.421875 C 250.75 178.648438 250.660156 179.871094 250.539062 181.09375 C 250.417969 182.3125 250.269531 183.53125 250.085938 184.746094 C 249.90625 185.960938 249.699219 187.167969 249.457031 188.371094 C 249.21875 189.578125 248.949219 190.773438 248.652344 191.964844 C 248.351562 193.15625 248.027344 194.335938 247.667969 195.511719 C 247.3125 196.6875 246.929688 197.851562 246.515625 199.007812 C 246.101562 200.164062 245.660156 201.308594 245.191406 202.441406 C 244.71875 203.578125 244.222656 204.699219 243.699219 205.808594 C 243.171875 206.917969 242.621094 208.011719 242.042969 209.097656 C 241.464844 210.179688 240.859375 211.246094 240.230469 212.296875 C 239.597656 213.351562 238.941406 214.386719 238.257812 215.410156 C 237.578125 216.429688 236.871094 217.433594 236.140625 218.417969 C 235.410156 219.40625 234.652344 220.371094 233.875 221.320312 C 233.097656 222.269531 232.292969 223.199219 231.46875 224.109375 C 230.644531 225.015625 229.800781 225.90625 228.933594 226.773438 C 228.0625 227.640625 227.175781 228.488281 226.265625 229.3125 C 225.355469 230.136719 224.425781 230.9375 223.480469 231.714844 C 222.53125 232.496094 221.5625 233.25 220.578125 233.980469 C 219.589844 234.710938 218.585938 235.417969 217.566406 236.101562 C 216.546875 236.78125 215.507812 237.441406 214.457031 238.070312 C 213.402344 238.703125 212.335938 239.304688 211.253906 239.886719 C 210.171875 240.464844 209.074219 241.015625 207.964844 241.539062 C 206.855469 242.066406 205.734375 242.5625 204.601562 243.03125 C 203.464844 243.5 202.320312 243.941406 201.164062 244.355469 C 200.011719 244.769531 198.84375 245.15625 197.671875 245.511719 C 196.496094 245.867188 195.3125 246.195312 194.121094 246.492188 C 192.933594 246.792969 191.734375 247.058594 190.53125 247.300781 C 189.328125 247.539062 188.117188 247.75 186.902344 247.929688 C 185.691406 248.109375 184.472656 248.257812 183.25 248.378906 C 182.027344 248.5 180.804688 248.589844 179.578125 248.652344 C 178.351562 248.710938 177.125 248.742188 175.898438 248.742188 C 174.671875 248.742188 173.445312 248.710938 172.21875 248.652344 C 170.992188 248.589844 169.769531 248.5 168.546875 248.378906 C 167.328125 248.257812 166.109375 248.109375 164.894531 247.929688 C 163.679688 247.75 162.472656 247.539062 161.265625 247.300781 C 160.0625 247.058594 158.867188 246.792969 157.675781 246.492188 C 156.484375 246.195312 155.300781 245.867188 154.128906 245.511719 C 152.953125 245.15625 151.789062 244.769531 150.632812 244.355469 C 149.476562 243.941406 148.332031 243.5 147.199219 243.03125 C 146.0625 242.5625 144.941406 242.066406 143.832031 241.539062 C 142.722656 241.015625 141.628906 240.464844 140.542969 239.886719 C 139.460938 239.304688 138.394531 238.703125 137.339844 238.070312 C 136.289062 237.441406 135.253906 236.78125 134.230469 236.101562 C 133.210938 235.417969 132.207031 234.710938 131.222656 233.980469 C 130.234375 233.25 129.269531 232.496094 128.320312 231.714844 C 127.371094 230.9375 126.441406 230.136719 125.53125 229.3125 C 124.621094 228.488281 123.734375 227.640625 122.867188 226.773438 C 122 225.90625 121.152344 225.015625 120.328125 224.109375 C 119.503906 223.199219 118.703125 222.269531 117.921875 221.320312 C 117.144531 220.371094 116.390625 219.40625 115.660156 218.417969 C 114.925781 217.433594 114.222656 216.429688 113.539062 215.410156 C 112.855469 214.386719 112.199219 213.351562 111.570312 212.296875 C 110.9375 211.246094 110.332031 210.179688 109.753906 209.097656 C 109.175781 208.011719 108.625 206.917969 108.101562 205.808594 C 107.574219 204.699219 107.078125 203.578125 106.609375 202.441406 C 106.136719 201.308594 105.695312 200.164062 105.285156 199.007812 C 104.871094 197.851562 104.484375 196.6875 104.128906 195.511719 C 103.773438 194.335938 103.445312 193.15625 103.148438 191.964844 C 102.847656 190.773438 102.578125 189.578125 102.339844 188.371094 C 102.101562 187.167969 101.890625 185.960938 101.710938 184.746094 C 101.53125 183.53125 101.378906 182.3125 101.261719 181.09375 C 101.140625 179.871094 101.050781 178.648438 100.988281 177.421875 C 100.929688 176.195312 100.898438 174.96875 100.898438 173.742188 C 100.898438 172.511719 100.929688 171.285156 100.988281 170.0625 C 101.050781 168.835938 101.140625 167.609375 101.261719 166.390625 C 101.378906 165.167969 101.53125 163.949219 101.710938 162.734375 C 101.890625 161.523438 102.101562 160.3125 102.339844 159.109375 C 102.578125 157.90625 102.847656 156.707031 103.148438 155.515625 C 103.445312 154.328125 103.773438 153.144531 104.128906 151.96875 C 104.484375 150.796875 104.871094 149.628906 105.285156 148.472656 C 105.695312 147.320312 106.136719 146.171875 106.609375 145.039062 C 107.078125 143.90625 107.574219 142.785156 108.101562 141.675781 C 108.625 140.566406 109.175781 139.46875 109.753906 138.386719 C 110.332031 137.304688 110.9375 136.234375 111.570312 135.183594 C 112.199219 134.128906 112.855469 133.09375 113.539062 132.074219 C 114.222656 131.050781 114.925781 130.050781 115.660156 129.0625 C 116.390625 128.078125 117.144531 127.109375 117.921875 126.160156 C 118.703125 125.210938 119.503906 124.285156 120.328125 123.375 C 121.152344 122.464844 122 121.574219 122.867188 120.707031 C 123.734375 119.839844 124.621094 118.992188 125.53125 118.167969 C 126.441406 117.34375 127.371094 116.542969 128.320312 115.765625 C 129.269531 114.988281 130.234375 114.230469 131.222656 113.5 C 132.207031 112.769531 133.210938 112.0625 134.230469 111.378906 C 135.253906 110.699219 136.289062 110.042969 137.339844 109.410156 C 138.394531 108.78125 139.460938 108.175781 140.542969 107.597656 C 141.628906 107.019531 142.722656 106.464844 143.832031 105.941406 C 144.941406 105.417969 146.0625 104.917969 147.199219 104.449219 C 148.332031 103.980469 149.476562 103.539062 150.632812 103.125 C 151.789062 102.710938 152.953125 102.328125 154.128906 101.96875 C 155.300781 101.613281 156.484375 101.285156 157.675781 100.988281 C 158.867188 100.691406 160.0625 100.421875 161.265625 100.183594 C 162.472656 99.941406 163.679688 99.734375 164.894531 99.554688 C 166.109375 99.371094 167.328125 99.222656 168.546875 99.101562 C 169.769531 98.980469 170.992188 98.890625 172.21875 98.832031 C 173.445312 98.769531 174.671875 98.742188 175.898438 98.742188 C 177.125 98.742188 178.351562 98.769531 179.578125 98.832031 C 180.804688 98.890625 182.027344 98.980469 183.25 99.101562 C 184.472656 99.222656 185.691406 99.371094 186.902344 99.554688 C 188.117188 99.734375 189.328125 99.941406 190.53125 100.183594 C 191.734375 100.421875 192.933594 100.691406 194.121094 100.988281 C 195.3125 101.285156 196.496094 101.613281 197.671875 101.96875 C 198.84375 102.328125 200.011719 102.710938 201.164062 103.125 C 202.320312 103.539062 203.464844 103.980469 204.601562 104.449219 C 205.734375 104.917969 206.855469 105.417969 207.964844 105.941406 C 209.074219 106.464844 210.171875 107.019531 211.253906 107.597656 C 212.335938 108.175781 213.402344 108.78125 214.457031 109.410156 C 215.507812 110.042969 216.546875 110.699219 217.566406 111.378906 C 218.585938 112.0625 219.589844 112.769531 220.578125 113.5 C 221.5625 114.230469 222.53125 114.988281 223.480469 115.765625 C 224.425781 116.542969 225.355469 117.34375 226.265625 118.167969 C 227.175781 118.992188 228.0625 119.839844 228.933594 120.707031 C 229.800781 121.574219 230.644531 122.464844 231.46875 123.375 C 232.292969 124.285156 233.097656 125.210938 233.875 126.160156 C 234.652344 127.109375 235.410156 128.078125 236.140625 129.0625 C 236.871094 130.050781 237.578125 131.050781 238.257812 132.074219 C 238.941406 133.09375 239.597656 134.128906 240.230469 135.183594 C 240.859375 136.234375 241.464844 137.304688 242.042969 138.386719 C 242.621094 139.46875 243.171875 140.566406 243.699219 141.675781 C 244.222656 142.785156 244.71875 143.90625 245.191406 145.039062 C 245.660156 146.171875 246.101562 147.320312 246.515625 148.472656 C 246.929688 149.628906 247.3125 150.796875 247.667969 151.96875 C 248.027344 153.144531 248.351562 154.328125 248.652344 155.515625 C 248.949219 156.707031 249.21875 157.90625 249.457031 159.109375 C 249.699219 160.3125 249.90625 161.523438 250.085938 162.734375 C 250.269531 163.949219 250.417969 165.167969 250.539062 166.390625 C 250.660156 167.609375 250.75 168.835938 250.808594 170.0625 C 250.871094 171.285156 250.898438 172.511719 250.898438 173.742188 Z M 250.898438 173.742188 " fill-opacity="1" fill-rule="nonzero"/></g><path fill="#5c913b" d="M 226.441406 197.691406 C 222.203125 196.066406 222.957031 196.65625 220.34375 191.101562 C 217.734375 185.554688 216.148438 183.765625 210.273438 183.117188 C 204.394531 182.46875 204.617188 182.929688 202.984375 179.992188 C 201.347656 177.050781 194.722656 180.785156 190.484375 182.425781 C 186.226562 184.058594 187.277344 187.617188 185.96875 187.28125 C 184.65625 186.957031 181.359375 186.113281 178.082031 183.503906 C 174.816406 180.886719 180.511719 178.84375 182.148438 177.214844 C 183.785156 175.578125 179.066406 176.46875 177.429688 175.484375 C 175.789062 174.507812 172.863281 177.445312 170.25 174.824219 C 167.632812 172.210938 169.269531 168.289062 168.945312 165.023438 C 168.617188 161.753906 173.1875 161.101562 176.128906 160.449219 C 179.066406 159.800781 181.347656 160.453125 181.347656 164.371094 C 181.347656 168.289062 184.945312 169.597656 183.964844 165.019531 C 182.988281 160.441406 184.945312 159.140625 186.257812 156.851562 C 187.5625 154.566406 189.847656 151.296875 192.785156 146.394531 C 195.726562 141.496094 197.691406 143.777344 201.28125 144.128906 C 204.878906 144.484375 205.859375 143.78125 208.46875 144.113281 C 211.074219 144.441406 208.46875 140.84375 209.453125 137.253906 C 210.429688 133.660156 214.023438 134.3125 217.625 135.296875 C 221.214844 136.273438 214.023438 130.714844 212.71875 127.777344 C 211.40625 124.835938 207.816406 127.777344 205.535156 122.878906 C 203.234375 117.976562 200.019531 114.808594 197.078125 114.371094 C 194.136719 113.929688 198.015625 120.59375 195.726562 124.1875 C 193.433594 127.777344 189.914062 127.214844 186.3125 127.214844 C 182.722656 127.214844 179.390625 124.1875 182.007812 119.613281 C 184.617188 115.039062 189.601562 115.511719 192.214844 111.589844 C 194.832031 107.675781 182.925781 108.03125 178.675781 106.726562 C 174.425781 105.421875 169.324219 105.433594 165.078125 108.699219 C 160.828125 111.960938 151.742188 112.984375 148.144531 114.285156 C 144.554688 115.589844 143.90625 112.121094 143.257812 109.503906 C 142.964844 108.339844 141.640625 107.972656 139.773438 108.015625 C 130.523438 113.117188 122.511719 120.148438 116.164062 128.519531 C 117.152344 131.882812 121.9375 127.734375 122.875 126.796875 C 123.851562 125.816406 128.753906 127.125 129.402344 130.714844 C 130.058594 134.308594 129.734375 138.238281 128.429688 141.503906 C 127.121094 144.765625 131.695312 149.339844 134.308594 153.914062 C 136.925781 158.496094 139.863281 158.492188 141.171875 158.492188 C 142.472656 158.492188 149.992188 161.433594 149.660156 165.023438 C 149.335938 168.621094 156.523438 171.882812 159.464844 174.171875 C 162.40625 176.464844 164.265625 178.71875 168.082031 179.378906 C 171.902344 180.035156 176.371094 186.28125 178.328125 186.941406 C 179.832031 187.441406 182.378906 189.84375 183.914062 190.589844 C 181.894531 193.148438 177.984375 198.402344 177.984375 200.824219 C 177.984375 204.097656 182.253906 209.246094 183.886719 210.550781 C 185.515625 211.847656 190.207031 212.839844 191.179688 216.101562 C 192.160156 219.371094 190.496094 230.367188 187.5625 233.304688 C 184.613281 236.242188 183.539062 243.1875 183.539062 243.1875 C 183.539062 243.1875 184.578125 245.441406 188.054688 243.1875 C 191.894531 240.699219 198.328125 233.617188 200.898438 232.074219 C 205.800781 229.128906 210.5625 225.554688 215.136719 221.3125 C 219.710938 217.066406 218.054688 214.089844 220.34375 209.851562 C 222.632812 205.609375 225.589844 205.800781 229.507812 202.214844 C 233.433594 198.617188 230.691406 199.328125 226.441406 197.691406 Z M 226.441406 197.691406 " fill-opacity="1" fill-rule="nonzero"/></svg>